<svg width="320" height="321" viewBox="0 0 320 321" fill="none" xmlns="http://www.w3.org/2000/svg">
<g clip-path="url(#clip0_2015_69)">
<rect width="320" height="320" rx="30" fill="url(#paint0_linear_2015_69)"/>
<path d="M202.643 50.2861C205.445 50.2862 207.596 51.4594 209.097 53.8066C210.598 56.154 210.748 58.6483 209.547 61.2891L179.924 130.428L238.203 81.3389C240.526 79.4691 243.014 78.8844 245.666 79.585C248.191 80.2228 249.903 81.8913 250.799 84.5898C251.263 85.9855 251.331 87.4556 251.003 89C250.549 90.4817 249.701 91.7286 248.459 92.7402L231.096 106.954L247.718 156.976L270.351 158.623C272.089 158.791 273.556 159.405 274.75 160.466C275.912 161.434 276.711 162.569 277.144 163.872C278.01 166.477 277.533 168.841 275.713 170.962C273.894 173.083 271.515 173.993 268.576 173.692L192.177 167.51L257.93 206.538C260.467 208.121 261.804 210.254 261.942 212.937C262.102 215.482 261.008 217.589 258.661 219.257C257.446 220.119 256.038 220.637 254.434 220.81C252.853 220.845 251.378 220.441 250.01 219.6L230.82 207.845L187.304 238.76L192.697 260.317C193.071 261.986 192.926 263.539 192.263 264.978C191.681 266.358 190.824 267.451 189.691 268.256C187.424 269.866 184.978 270.153 182.353 269.117C179.728 268.081 178.107 266.149 177.491 263.322L159.895 190.361L142.255 263.572C141.5 266.42 139.838 268.323 137.272 269.28C134.845 270.216 132.458 269.85 130.111 268.183C128.897 267.32 127.958 266.169 127.295 264.731C126.772 263.272 126.708 261.775 127.104 260.243L132.606 238.764L89.0913 207.85L69.7915 219.525C68.2842 220.389 66.7282 220.735 65.1245 220.562C63.6019 220.448 62.2743 219.988 61.1411 219.183C58.8745 217.572 57.8389 215.387 58.0356 212.625C58.2324 209.863 59.6107 207.76 62.1694 206.313L127.695 167.402L51.0376 173.622C48.0343 173.799 45.6708 172.843 43.9468 170.752C42.2869 168.784 41.9046 166.451 42.8013 163.752C43.2651 162.356 44.0947 161.128 45.2886 160.067C46.5466 159.13 47.9819 158.608 49.5942 158.503L72.1841 156.982L88.8052 106.961L71.4858 92.6211C70.1803 91.4862 69.3628 90.1461 69.0347 88.6016C68.6756 87.1501 68.7131 85.7725 69.146 84.4697C70.0118 81.8644 71.8182 80.2261 74.5649 79.5557C77.3116 78.8854 79.7837 79.5167 81.981 81.4492L140.072 130.36L110.336 60.9951C109.236 58.2569 109.436 55.763 110.937 53.5137C112.338 51.362 114.489 50.2861 117.391 50.2861C118.892 50.2861 120.343 50.6775 121.744 51.46C123.044 52.3402 123.995 53.5135 124.595 54.9805L133.055 75.5195H186.842L195.438 54.9805C196.138 53.4157 197.19 52.2424 198.59 51.46C199.891 50.6775 201.242 50.2861 202.643 50.2861ZM100.948 200.677L135.986 225.57L149.958 171.028L100.948 200.677ZM183.993 225.518L219.031 200.624L170.301 170.777L183.993 225.518ZM86.062 156.048L143.426 152.188L99.4448 115.771L86.062 156.048ZM176.341 151.78L233.815 155.964L220.431 115.686L176.341 151.78ZM159.733 140.293L181.562 88.1367H138.251L159.733 140.293Z" fill="white"/>
</g>
<defs>
<linearGradient id="paint0_linear_2015_69" x1="222" y1="1.01548e-05" x2="100.5" y2="320" gradientUnits="userSpaceOnUse">
<stop stop-color="#F9A27C"/>
<stop offset="0.5" stop-color="#9F8EE4"/>
<stop offset="1" stop-color="#3B82F6"/>
</linearGradient>
<clipPath id="clip0_2015_69">
<rect width="320" height="320" fill="white" transform="translate(0 0.5)"/>
</clipPath>
</defs>
</svg>
